<svg width="17" height="17" viewBox="0 0 17 17" fill="none" xmlns="http://www.w3.org/2000/svg">
<path d="M15.8988 1.10231C14.4355 -0.36467 12.0557 -0.36467 10.5924 1.10231L0.86319 10.8279C0.787124 10.9039 0.740036 11.0017 0.725547 11.1068L0.00473378 16.4459C-0.0169993 16.598 0.0373334 16.7501 0.142377 16.8552C0.232931 16.9457 0.359707 17 0.486483 17C0.508216 17 0.529949 17 0.551683 16.9964L3.76818 16.5618C4.03622 16.5255 4.22457 16.2792 4.18835 16.0112C4.15213 15.7432 3.90582 15.5548 3.63778 15.591L1.05879 15.9388L1.56227 12.2152L5.48147 16.1343C5.57202 16.2249 5.6988 16.2792 5.82557 16.2792C5.95235 16.2792 6.07912 16.2285 6.16968 16.1343L15.8988 6.4088C16.6088 5.69885 17 4.75709 17 3.75375C17 2.7504 16.6088 1.80864 15.8988 1.10231ZM10.7807 2.29763L12.4143 3.93123L3.53636 12.8092L1.90275 11.1756L10.7807 2.29763ZM5.8292 15.0984L4.23181 13.501L13.1098 4.62307L14.7072 6.22045L5.8292 15.0984ZM15.3881 5.52137L11.4798 1.61304C11.976 1.20373 12.5954 0.979158 13.2474 0.979158C13.99 0.979158 14.6854 1.26893 15.2106 1.79053C15.7358 2.31212 16.022 3.0112 16.022 3.75375C16.022 4.40936 15.7974 5.02513 15.3881 5.52137Z" fill="white"/>
</svg>
