<svg width="25" height="25" viewBox="0 0 25 25" fill="none" xmlns="http://www.w3.org/2000/svg">
<path d="M24.4045 24.2009L17.391 16.9071C19.1799 15.113 20.2882 12.6397 20.2882 9.91202C20.2882 4.44625 15.8419 0 10.3761 0C4.91036 0 0.464111 4.44625 0.464111 9.91202C0.464111 15.3778 4.91036 19.824 10.3761 19.824C12.7753 19.824 14.9772 18.9664 16.6934 17.5433L23.7238 24.8551C23.8164 24.9519 23.94 25 24.0642 25C24.1822 25 24.2997 24.9561 24.3913 24.8683C24.5791 24.6875 24.5848 24.3888 24.4045 24.2009ZM10.3761 18.88C5.43098 18.88 1.40811 14.8572 1.40811 9.91202C1.40811 4.96687 5.43098 0.944002 10.3761 0.944002C15.3213 0.944002 19.3442 4.96687 19.3442 9.91202C19.3442 14.8572 15.3208 18.88 10.3761 18.88Z" fill="black"/>
</svg>
